<svg width="119px" height="37px" viewBox="0 0 119 37" version="1.1" xmlns="http://www.w3.org/2000/svg" xmlns:xlink="http://www.w3.org/1999/xlink">
    <defs>
        <polygon id="path-1" points="0 36.5855111 118.644889 36.5855111 118.644889 0.000251851852 0 0.000251851852"></polygon>
    </defs>
    <g id="Page-1" stroke="none" stroke-width="1" fill="none" fill-rule="evenodd">
        <g id="1" transform="translate(-143.000000, -40.000000)">
            <g id="Page-1" transform="translate(143.000000, 40.000000)">
                <path d="M53.1806593,18.6607111 C53.4098444,18.3987852 53.5571778,18.0392667 53.5571778,17.6293778 C53.5571778,17.2364889 53.4098444,16.8927111 53.2134,16.6307852 C52.9514741,16.3367481 52.5585852,16.1560444 52.1002148,16.1560444 L49.9229556,16.1560444 L49.9229556,19.0869704 L52.2148074,19.0869704 C52.6240667,19.0869704 52.9678444,18.922637 53.1806593,18.6607111 M54.4902889,19.6756741 C53.9336963,20.265637 53.082437,20.6415259 52.1656963,20.6415259 L49.9229556,20.6415259 L49.9229556,22.7866741 L48.1706963,22.7866741 L48.1706963,14.6008593 L52.1656963,14.6008593 C53.0660667,14.6008593 53.8845852,14.944637 54.4575481,15.5509704 C54.9814,16.0748222 55.3088074,16.8108593 55.3088074,17.6293778 C55.3088074,18.4151556 54.9977704,19.1354519 54.4902889,19.6756741" id="Fill-1" fill="#FEFEFE"></path>
                <path d="M61.6434481,19.0868444 L63.8868185,19.0868444 C64.3451889,19.0868444 64.7380778,18.9067704 65.0000037,18.5957333 C65.2128185,18.3338074 65.3437815,17.9900296 65.3437815,17.6128815 C65.3437815,17.2042519 65.1964481,16.8271037 64.9508926,16.5651778 C64.7047074,16.3032519 64.3451889,16.1565481 63.8868185,16.1565481 L61.6434481,16.1565481 L61.6434481,19.0868444 Z M66.5381889,19.3815111 C66.276263,19.7252889 65.9003741,20.0520667 65.5074852,20.2655111 L66.9808185,22.7865481 L64.9836333,22.7865481 L63.821337,20.6420296 L61.6434481,20.6420296 L61.6434481,22.7865481 L59.8924481,22.7865481 L59.8924481,14.6007333 L63.9680407,14.6007333 C64.9666333,14.6007333 65.851263,15.0099926 66.4242259,15.6975481 C66.8498556,16.2056593 67.1117815,16.8762148 67.1117815,17.6128815 C67.1117815,18.2676963 66.8989667,18.8904 66.5381889,19.3815111 Z" id="Fill-3" fill="#FEFEFE"></path>
                <path d="M73.8560593,20.6252815 C74.3308,21.1163926 74.9856148,21.3783185 75.7222815,21.3783185 C76.4425778,21.3783185 77.0652815,21.1163926 77.5230222,20.6586519 C78.0141333,20.1996519 78.2930593,19.4957259 78.2930593,18.6942074 C78.2930593,17.8750593 78.0141333,17.1711333 77.5230222,16.712763 C77.0652815,16.270763 76.4262074,16.008837 75.7222815,16.008837 C74.9856148,16.008837 74.3150593,16.270763 73.8396889,16.7782444 C73.3976889,17.2202444 73.1193926,17.8914296 73.1193926,18.6942074 C73.1193926,19.4957259 73.3976889,20.1669111 73.8560593,20.6252815 M78.8660222,15.7305407 C79.6184296,16.4999481 80.0604296,17.5476519 80.0604296,18.6942074 C80.0604296,19.8728741 79.6026889,20.9690593 78.7835407,21.754837 C78.0311333,22.4921333 76.9664296,22.9335037 75.7222815,22.9335037 C74.461763,22.9335037 73.3649481,22.458763 72.5955407,21.7063556 C71.8261333,20.9363185 71.367763,19.8558741 71.367763,18.6942074 C71.367763,17.4985407 71.8588741,16.3853556 72.693763,15.5995778 C73.4468,14.8792815 74.4781333,14.4536519 75.7222815,14.4536519 C76.9828,14.4536519 78.0959852,14.944763 78.8660222,15.7305407" id="Fill-5" fill="#FEFEFE"></path>
                <polygon id="Fill-7" fill="#FEFEFE" points="90.9796556 14.6007333 90.9796556 16.1722889 86.3959519 16.1722889 86.3959519 18.0227704 90.4721741 18.0227704 90.4721741 19.5773259 86.3959519 19.5773259 86.3959519 22.7865481 84.6436926 22.7865481 84.6436926 14.6007333"></polygon>
                <polygon id="Fill-9" fill="#FEFEFE" points="99.9315407 17.1749111 100.291059 18.5191704 95.5002074 19.8029852 95.1400593 18.4587259"></polygon>
                <mask id="mask-2" fill="white">
                    <use xlink:href="#path-1"></use>
                </mask>
                <g id="Clip-12"></g>
                <polygon id="Fill-11" fill="#FEFEFE" mask="url(#mask-2)" points="104.779185 22.7865481 106.547815 22.7865481 106.547815 14.6007333 104.779185 14.6007333"></polygon>
                <polygon id="Fill-13" fill="#FEFEFE" mask="url(#mask-2)" points="111.0491 14.6007333 118.644952 14.6007333 118.644952 16.1565481 115.714656 16.1565481 115.714656 22.7865481 113.963026 22.7865481 113.963026 16.1565481 111.0491 16.1565481"></polygon>
                <polygon id="Fill-14" fill="#FEFEFE" mask="url(#mask-2)" points="15.2675741 22.3094148 14.276537 21.3183778 21.3176852 14.2766 22.3093519 15.267637"></polygon>
                <path d="M14.7215593,21.3182519 L15.2674481,21.8641407 L21.8640778,15.2675111 L21.3181889,14.7216222 L14.7215593,21.3182519 Z M15.2674481,22.754437 L13.831263,21.3182519 L21.3181889,13.8313259 L22.7543741,15.2675111 L15.2674481,22.754437 Z" id="Fill-15" fill="#FEFEFE" mask="url(#mask-2)"></path>
                <polygon id="Fill-16" fill="#FEFEFE" mask="url(#mask-2)" points="2.42753704 18.2927556 19.2839815 1.43631111 18.2929444 0.445274074 0.445462963 18.2927556 9.86472222 27.7120148 10.8557593 26.7209778"></polygon>
                <path d="M0.890359259,18.2927556 L9.86447037,27.2668667 L10.4109889,26.7209778 L1.98213704,18.2927556 L18.8385815,1.43631111 L18.2926926,0.890422222 L0.890359259,18.2927556 Z M9.86447037,28.157163 L6.2962963e-05,18.2927556 L18.2926926,0.000125925926 L19.7288778,1.43631111 L2.87243333,18.2927556 L11.3012852,26.7209778 L9.86447037,28.157163 Z" id="Fill-17" fill="#FEFEFE" mask="url(#mask-2)"></path>
                <polygon id="Fill-18" fill="#FEFEFE" mask="url(#mask-2)" points="26.7383556 8.89074815 25.7473185 9.88178519 34.1579111 18.2930074 17.3014667 35.1494519 18.2925037 36.1404889 36.1406148 18.2930074"></polygon>
                <path d="M17.7467407,35.1492 L18.2926296,35.6950889 L35.6955926,18.2927556 L26.7384815,9.33564444 L26.1925926,9.88216296 L34.6031852,18.2927556 L17.7467407,35.1492 Z M18.2926296,36.5853852 L16.8564444,35.1492 L33.7128889,18.2927556 L25.3022963,9.88216296 L26.7384815,8.44534815 L36.5858889,18.2927556 L18.2926296,36.5853852 Z" id="Fill-19" fill="#FEFEFE" mask="url(#mask-2)"></path>
            </g>
        </g>
    </g>
</svg>